<svg width="225" height="76" viewBox="0 0 225 76" fill="none" xmlns="http://www.w3.org/2000/svg">
<path d="M18.1106 76C13.4629 76 8.55137 75.2483 4.85026 71.446C3.15128 69.6972 1.89504 67.2865 1.21458 64.4901C-0.0940066 59.0836 1.37597 54.5537 2.92882 49.7565L2.95936 49.6644C4.77611 44.0388 6.70845 38.6805 8.6975 33.7365C11.8341 25.9483 15.6214 18.4411 20.0189 11.2952C20.5271 10.469 21.0135 9.72611 21.5042 9.02483C24.1301 5.26636 28.4724 0.243387 35.8245 0.00670234C41.4034 -0.166428 45.4207 3.04415 48.618 6.20872C49.6518 7.22997 50.6834 8.28409 51.6867 9.3404C57.2807 15.2339 62.3641 21.5964 66.8815 28.3585C69.1301 31.7268 71.2609 35.2311 73.2063 38.7748L73.5444 39.3862C75.2892 42.5551 77.1059 45.8315 77.5465 49.739C78.0961 54.6195 76.565 59.4102 73.4528 62.5506C68.3842 67.6656 60.7137 69.3027 53.9483 70.7469L52.5373 71.0493C42.4154 73.2409 32.5246 75.2593 22.7888 75.8159C21.3013 75.9101 19.7223 76 18.1106 76ZM36.2454 3.29399H35.9204C31.4451 3.43425 27.7156 5.85369 24.1824 10.9095C23.7288 11.567 23.2773 12.2486 22.8019 13.02C18.5014 20.0095 14.7979 27.3525 11.7312 34.9703C9.76836 39.842 7.86655 45.128 6.07161 50.6813L6.04107 50.7734C4.57328 55.3011 3.30613 59.2129 4.39444 63.7034C4.93532 65.9365 5.90149 67.8147 7.18826 69.1361C11.1315 73.1861 17.2207 72.8376 22.6012 72.5308C32.1037 71.9873 41.857 69.9996 51.8459 67.8344L53.2657 67.5298C59.5971 66.1907 66.7507 64.6567 71.1322 60.2407C73.5509 57.7994 74.733 54.0168 74.2947 50.1181C73.9282 46.8615 72.3514 44.0103 70.683 40.9926L70.3427 40.3768C68.4366 36.9142 66.3559 33.491 64.1575 30.1993C59.7443 23.5939 54.7784 17.3789 49.3138 11.6218C48.3345 10.5896 47.3247 9.56175 46.3171 8.55365C43.5473 5.81643 40.4045 3.29399 36.2454 3.29399Z" fill="url(#paint0_linear_1084_484)"/>
<path d="M60.8838 49.3534C59.9831 46.0442 58.2536 43.1645 56.5807 40.3813C55.379 38.3782 54.1381 36.3094 52.583 34.4313C50.4849 31.8979 47.7456 31.0936 44.9889 32.1718C44.4284 30.4405 43.8439 28.6961 43.2114 26.9823C41.5909 22.5992 39.6673 18.4836 36.5987 18.168C34.8997 17.9927 33.3556 19.0073 32.0034 21.1791C30.4461 23.6819 28.9195 26.2182 27.4233 28.7881C25.9272 31.358 24.4732 33.9375 23.0614 36.5264C22.575 37.4205 22.0821 38.3344 21.5979 39.2439C19.9644 42.312 18.1084 45.9105 16.7409 49.7194C16.2545 51.0693 14.8282 55.6672 16.802 58.1151C17.3254 58.7725 18.261 59.4782 19.8357 59.4782C20.1049 59.4778 20.3738 59.4588 20.6405 59.4212C22.1475 59.2021 23.3776 58.3759 24.383 57.5869C26.5051 55.9192 28.3262 54.0082 30.3153 51.8649C34.3348 47.5366 38.3391 43.0988 42.219 38.639C42.5462 38.2621 42.8733 37.8829 43.2157 37.517C43.2224 37.5044 43.2304 37.4926 43.2397 37.4819C44.8885 35.6607 45.9441 35.2904 46.1317 35.2443H46.1491C46.9212 34.92 48.4479 34.5737 50.0749 36.5351C51.4707 38.2204 52.6485 40.1818 53.7826 42.0797C55.3398 44.6701 56.9493 47.3394 57.7301 50.2212C58.0747 51.4835 58.3299 53.2477 57.6014 54.4837C57.3408 54.9109 56.9743 55.2627 56.5377 55.5048C56.1011 55.7468 55.6094 55.8707 55.1108 55.8644C52.751 55.803 51.5013 52.8532 50.5024 49.6733L47.2342 39.1641L44.5037 41.3907L47.3836 50.6639C48.2363 53.377 50.0117 59.0202 55.0279 59.1517C56.1084 59.1718 57.1751 58.9059 58.121 58.3809C59.0669 57.8558 59.8588 57.09 60.4171 56.1602C61.4683 54.372 61.6275 52.0818 60.8838 49.3534ZM39.7502 36.4716C35.8942 40.8963 31.9139 45.3188 27.9184 49.6207C26.0231 51.6611 24.2958 53.4734 22.3613 54.9944C21.6655 55.5422 20.9218 56.0616 20.1803 56.1624C19.9273 56.1975 19.4802 56.2282 19.3297 56.0441C18.8063 55.3866 19.0244 53.0066 19.8052 50.8327C21.0963 47.232 22.8891 43.7606 24.4703 40.7933C24.9479 39.8926 25.4364 38.9875 25.9184 38.1043C28.7101 32.9805 31.6893 27.8721 34.771 22.9192C35.506 21.7402 35.9793 21.6635 36.1777 21.6635C36.1777 21.6635 36.2541 21.6635 36.2584 21.6635C36.6663 21.6766 37.2639 21.9747 38.2213 23.6775C39.0653 25.1962 39.748 27.0327 40.1493 28.1307C40.8581 30.0504 41.5102 32.025 42.1362 33.9842C41.2871 34.7596 40.49 35.5905 39.7502 36.4716Z" fill="url(#paint1_linear_1084_484)"/>
<path d="M97.9969 54.1575L106.916 25.1027C108.068 21.4332 111.074 19.6738 114.231 19.6738C117.438 19.6738 120.444 21.4332 121.596 25.1027L130.515 54.1575H123.049L121.095 47.2205L107.417 47.2708L105.463 54.1575H97.9969ZM113.179 27.2643L109.321 40.6857H119.191L115.383 27.2643C115.183 26.5605 114.882 26.2589 114.281 26.2589C113.73 26.2589 113.379 26.5605 113.179 27.2643Z" fill="white"/>
<path d="M147.111 54.811C141.048 54.811 136.188 52.2473 134.034 47.4216L140.146 44.3553C141.249 46.8184 143.604 48.0751 147.111 48.0751C150.268 48.0751 152.673 46.7681 152.673 44.3553C152.673 41.5403 150.017 41.0879 146.51 40.4847C141.449 39.6301 134.585 37.8205 134.585 30.1798C134.585 24.2482 139.896 19.7241 146.86 19.7241C152.422 19.7241 157.232 22.2878 159.387 27.1134L153.274 30.1798C152.172 28.0183 149.967 26.5102 146.56 26.5102C143.804 26.5102 141.9 27.8172 141.9 29.8782C141.9 32.5926 144.706 33.2964 148.364 33.9499C153.374 34.8044 159.988 36.614 159.988 44.305C159.988 50.3874 154.276 54.811 147.111 54.811Z" fill="white"/>
<path d="M181.503 54.8612C171.682 54.8612 164.016 47.0697 164.016 37.2675C164.016 27.4653 171.682 19.6738 181.503 19.6738C187.365 19.6738 192.977 22.7904 195.482 28.0685L189.52 31.4365C187.866 28.5209 185.261 26.661 181.202 26.661C175.591 26.661 171.532 31.1349 171.532 37.2675C171.532 43.4002 175.541 47.874 181.202 47.874C185.261 47.874 187.967 46.0141 189.52 43.0986L195.482 46.4665C192.977 51.7446 187.365 54.8612 181.503 54.8612Z" fill="white"/>
<path d="M200.681 20.3273H207.997V54.1575H200.681V20.3273Z" fill="white"/>
<path d="M216.975 20.3273H224.291V54.1575H216.975V20.3273Z" fill="white"/>
<defs>
<linearGradient id="paint0_linear_1084_484" x1="154.257" y1="23.7186" x2="132.15" y2="91.6518" gradientUnits="userSpaceOnUse">
<stop stop-color="#B1006F"/>
<stop offset="1" stop-color="#0000CC"/>
<stop offset="1" stop-color="#0000DE"/>
</linearGradient>
<linearGradient id="paint1_linear_1084_484" x1="154.257" y1="23.7186" x2="132.15" y2="91.6518" gradientUnits="userSpaceOnUse">
<stop stop-color="#B1006F"/>
<stop offset="1" stop-color="#0000CC"/>
<stop offset="1" stop-color="#0000DE"/>
</linearGradient>
</defs>
</svg>
