<svg width="71" height="71" viewBox="0 0 71 71" fill="none" xmlns="http://www.w3.org/2000/svg">
<circle cx="35.8368" cy="35.8372" r="34.8548" fill="#032F41"/>
<path d="M19.481 38.8053H22.3726V40.5093H17.2735V31.447H19.481V38.8053ZM28.2278 40.5996C27.3758 40.5996 26.5926 40.4017 25.8783 40.0058C25.1726 39.6099 24.6089 39.0591 24.1872 38.3534C23.7741 37.6391 23.5675 36.8388 23.5675 35.9523C23.5675 35.0659 23.7741 34.2698 24.1872 33.5641C24.6089 32.8584 25.1726 32.3076 25.8783 31.9118C26.5926 31.5159 27.3758 31.3179 28.2278 31.3179C29.0798 31.3179 29.8586 31.5159 30.5643 31.9118C31.2786 32.3076 31.838 32.8584 32.2425 33.5641C32.6556 34.2698 32.8622 35.0659 32.8622 35.9523C32.8622 36.8388 32.6556 37.6391 32.2425 38.3534C31.8294 39.0591 31.27 39.6099 30.5643 40.0058C29.8586 40.4017 29.0798 40.5996 28.2278 40.5996ZM28.2278 38.5858C28.9507 38.5858 29.5273 38.3448 29.9576 37.8629C30.3965 37.381 30.616 36.7441 30.616 35.9523C30.616 35.152 30.3965 34.5151 29.9576 34.0418C29.5273 33.5598 28.9507 33.3189 28.2278 33.3189C27.4962 33.3189 26.911 33.5555 26.4721 34.0289C26.0418 34.5022 25.8267 35.1434 25.8267 35.9523C25.8267 36.7527 26.0418 37.3939 26.4721 37.8758C26.911 38.3491 27.4962 38.5858 28.2278 38.5858ZM40.6223 34.3129C40.4588 34.0117 40.2221 33.7836 39.9123 33.6287C39.6111 33.4652 39.2539 33.3834 38.8408 33.3834C38.1265 33.3834 37.5542 33.6201 37.1239 34.0934C36.6936 34.5581 36.4784 35.1821 36.4784 35.9652C36.4784 36.8 36.7022 37.4541 37.1497 37.9274C37.6058 38.3922 38.2298 38.6245 39.0215 38.6245C39.5637 38.6245 40.0199 38.4868 40.3899 38.2114C40.7686 37.936 41.044 37.5402 41.2161 37.0238H38.4148V35.3972H43.217V37.4498C43.0535 38.0006 42.7738 38.5127 42.3779 38.986C41.9907 39.4593 41.4958 39.8423 40.8934 40.1349C40.2909 40.4275 39.6111 40.5738 38.8537 40.5738C37.9587 40.5738 37.1583 40.3802 36.4526 39.9929C35.7555 39.597 35.209 39.0505 34.8132 38.3534C34.4259 37.6563 34.2322 36.8603 34.2322 35.9652C34.2322 35.0702 34.4259 34.2741 34.8132 33.577C35.209 32.8713 35.7555 32.3249 36.4526 31.9376C37.1497 31.5417 37.9458 31.3438 38.8408 31.3438C39.9252 31.3438 40.8374 31.6062 41.5776 32.1312C42.3263 32.6562 42.8211 33.3834 43.0621 34.3129H40.6223ZM49.242 40.5996C48.39 40.5996 47.6068 40.4017 46.8925 40.0058C46.1868 39.6099 45.6231 39.0591 45.2014 38.3534C44.7883 37.6391 44.5818 36.8388 44.5818 35.9523C44.5818 35.0659 44.7883 34.2698 45.2014 33.5641C45.6231 32.8584 46.1868 32.3076 46.8925 31.9118C47.6068 31.5159 48.39 31.3179 49.242 31.3179C50.094 31.3179 50.8728 31.5159 51.5785 31.9118C52.2929 32.3076 52.8522 32.8584 53.2567 33.5641C53.6698 34.2698 53.8764 35.0659 53.8764 35.9523C53.8764 36.8388 53.6698 37.6391 53.2567 38.3534C52.8436 39.0591 52.2842 39.6099 51.5785 40.0058C50.8728 40.4017 50.094 40.5996 49.242 40.5996ZM49.242 38.5858C49.9649 38.5858 50.5415 38.3448 50.9718 37.8629C51.4107 37.381 51.6302 36.7441 51.6302 35.9523C51.6302 35.152 51.4107 34.5151 50.9718 34.0418C50.5415 33.5598 49.9649 33.3189 49.242 33.3189C48.5105 33.3189 47.9252 33.5555 47.4863 34.0289C47.056 34.5022 46.8409 35.1434 46.8409 35.9523C46.8409 36.7527 47.056 37.3939 47.4863 37.8758C47.9252 38.3491 48.5105 38.5858 49.242 38.5858Z" fill="white"/>
</svg>
